# xmcd CD database file
#
# Track frame offsets:
#	150
#	23427
#	51170
#	66551
#	83592
#	118506
#	141738
#	165085
#
# Disc length: 2423 seconds
#
# Revision: 3
# Processed by: cddbd v1.5.1PL2 Copyright (c) Steve Scherf et al.
# Submitted via: CDex 1.51
#
DISCID=63097508
DTITLE=Cacophony - Go Off !
DYEAR=1988
DGENRE=Heavy Metal
TTITLE0=X-Ray Eyes
TTITLE1=E.S.P.
TTITLE2=Stranger
TTITLE3=Go off!
TTITLE4=Black Cat
TTITLE5=Sword of the Warrior
TTITLE6=Floating World
TTITLE7=Images
EXTD=YEAR: 1988
EXTT0=
EXTT1=
EXTT2=
EXTT3=
EXTT4=
EXTT5=
EXTT6=
EXTT7=
PLAYORDER=
